<svg width="500" height="100" xmlns="http://www.w3.org/2000/svg" version="1.1" enable-background="new 0 0 100 100" xml:space="preserve">
 <g>
  <title>Layer 1</title>
  <path fill-rule="evenodd" clip-rule="evenodd" d="m28.771,17.173c5.02,1.652 10.008,3.406 15.067,4.925c5.057,1.516 10.115,3.476 15.299,4.009c6.457,0.665 12.558,-4.046 14.61,-10.262c1.062,-3.222 2.696,-2.23 4.53,-1.064c7.34,4.669 11.965,11.562 14.427,19.615c1.563,5.117 1.782,10.681 2.272,16.075c0.271,2.974 -1.71,4.844 -4.278,6.18c-14.588,7.593 -27.94,4.734 -41.068,-4.049c-7.153,-4.785 -14.787,-9.067 -22.696,-12.418c-4.031,-1.708 -9.145,-1.073 -13.771,-1.102c-5.128,-0.03 -6.927,-1.898 -4.908,-6.463c4.152,-9.393 8.605,-14.57 20.516,-15.446z" id="svg_1"/>
  <path fill-rule="evenodd" clip-rule="evenodd" d="m5.006,54.279c-0.057,-7.91 0.199,-7.67 5.821,-8.992c11.541,-2.715 20.914,1.757 29.956,7.999c6.697,4.621 13.166,9.583 21.258,11.819c8.952,2.476 17.654,2.253 26.341,-1.026c1.229,-0.463 2.712,-0.253 4.077,-0.354c-0.207,1.363 -0.17,2.824 -0.66,4.075c-5.368,13.711 -21.246,16.426 -34.401,10.659c-3.896,-1.708 -7.819,-3.488 -11.901,-4.616c-8.061,-2.228 -15.919,1.389 -19.252,8.956c-1.49,3.38 -2.824,3.047 -5.266,1.246c-10.749,-7.934 -14.758,-19.194 -15.973,-29.766z" id="svg_2"/>
  <path fill-rule="evenodd" clip-rule="evenodd" d="m72.867,89.96c-5.53,1.722 -10.052,3.428 -14.719,4.514c-7.909,1.84 -15.677,0.96 -23.056,-2.482c-4.632,-2.162 -5.158,-7.041 -1.304,-10.342c3.779,-3.238 8.233,-3.479 12.464,-1.9c7.835,2.926 15.173,7.26 23.797,7.833c0.587,0.038 1.121,0.91 2.818,2.377z" id="svg_3"/>
  <path fill-rule="evenodd" clip-rule="evenodd" d="m28.966,9.381c4.194,-1.357 8.302,-3.201 12.601,-3.964c7.153,-1.27 14.361,-1.303 21.349,1.462c3.164,1.251 5.53,3.192 5.36,6.673c-0.173,3.499 -2.896,5.705 -6.016,6.109c-3.469,0.449 -7.273,0.376 -10.602,-0.593c-7.012,-2.042 -13.809,-4.815 -20.69,-7.3c-0.586,-0.213 -1.14,-0.517 -1.71,-0.778c-0.096,-0.537 -0.195,-1.073 -0.292,-1.609z" id="svg_4"/>
  <text transform="matrix(1.79769, 0, 0, 1.79769, -113.747, -21.7298)" xml:space="preserve" text-anchor="start" font-family="'Montserrat'" font-size="30" id="svg_7" y="50.78679" x="121.97643" stroke-width="0" stroke="#000" fill="#000000">RomlandTube</text>
 </g>

</svg>